<svg width="13" height="13" viewBox="0 0 13 13" fill="none" xmlns="http://www.w3.org/2000/svg">
<g clip-path="url(#clip0_608_3925)">
<path d="M12 11C12 11 12.75 11 12.75 10.25C12.75 9.5 12 7.25 9 7.25C6 7.25 5.25 9.5 5.25 10.25C5.25 11 6 11 6 11H12ZM6.0165 10.25L6 10.247C6.00075 10.049 6.12525 9.4745 6.57 8.957C6.984 8.47175 7.7115 8 9 8C10.2878 8 11.0153 8.4725 11.43 8.957C11.8748 9.4745 11.9985 10.0498 12 10.247L11.994 10.2485L11.9835 10.25H6.0165ZM9 5.75C9.39782 5.75 9.77936 5.59196 10.0607 5.31066C10.342 5.02936 10.5 4.64782 10.5 4.25C10.5 3.85218 10.342 3.47064 10.0607 3.18934C9.77936 2.90804 9.39782 2.75 9 2.75C8.60218 2.75 8.22064 2.90804 7.93934 3.18934C7.65804 3.47064 7.5 3.85218 7.5 4.25C7.5 4.64782 7.65804 5.02936 7.93934 5.31066C8.22064 5.59196 8.60218 5.75 9 5.75ZM11.25 4.25C11.25 4.54547 11.1918 4.83806 11.0787 5.11104C10.9657 5.38402 10.7999 5.63206 10.591 5.84099C10.3821 6.04992 10.134 6.21566 9.86104 6.32873C9.58806 6.4418 9.29547 6.5 9 6.5C8.70453 6.5 8.41194 6.4418 8.13896 6.32873C7.86598 6.21566 7.61794 6.04992 7.40901 5.84099C7.20008 5.63206 7.03434 5.38402 6.92127 5.11104C6.8082 4.83806 6.75 4.54547 6.75 4.25C6.75 3.65326 6.98705 3.08097 7.40901 2.65901C7.83097 2.23705 8.40326 2 9 2C9.59674 2 10.169 2.23705 10.591 2.65901C11.0129 3.08097 11.25 3.65326 11.25 4.25ZM5.952 7.46C5.65182 7.36618 5.34263 7.30409 5.0295 7.27475C4.85353 7.25759 4.6768 7.24933 4.5 7.25C1.5 7.25 0.75 9.5 0.75 10.25C0.75 10.75 1 11 1.5 11H4.662C4.55087 10.7658 4.49542 10.5091 4.5 10.25C4.5 9.4925 4.78275 8.7185 5.3175 8.072C5.49975 7.8515 5.712 7.64525 5.952 7.46ZM4.44 8C3.99639 8.66709 3.75663 9.44891 3.75 10.25H1.5C1.5 10.055 1.623 9.4775 2.07 8.957C2.47875 8.48 3.189 8.015 4.44 8.00075V8ZM1.875 4.625C1.875 4.02826 2.11205 3.45597 2.53401 3.03401C2.95597 2.61205 3.52826 2.375 4.125 2.375C4.72174 2.375 5.29403 2.61205 5.71599 3.03401C6.13795 3.45597 6.375 4.02826 6.375 4.625C6.375 5.22174 6.13795 5.79403 5.71599 6.21599C5.29403 6.63795 4.72174 6.875 4.125 6.875C3.52826 6.875 2.95597 6.63795 2.53401 6.21599C2.11205 5.79403 1.875 5.22174 1.875 4.625ZM4.125 3.125C3.72718 3.125 3.34564 3.28304 3.06434 3.56434C2.78304 3.84564 2.625 4.22718 2.625 4.625C2.625 5.02282 2.78304 5.40436 3.06434 5.68566C3.34564 5.96696 3.72718 6.125 4.125 6.125C4.52282 6.125 4.90436 5.96696 5.18566 5.68566C5.46696 5.40436 5.625 5.02282 5.625 4.625C5.625 4.22718 5.46696 3.84564 5.18566 3.56434C4.90436 3.28304 4.52282 3.125 4.125 3.125Z" fill="#002B63"/>
</g>
<defs>
<clipPath id="clip0_608_3925">
<rect width="12" height="12" fill="white" transform="translate(0.75 0.5)"/>
</clipPath>
</defs>
</svg>
