<svg width="13" height="13" viewBox="0 0 13 13" fill="none" xmlns="http://www.w3.org/2000/svg">
<path d="M3.25 8.58575C3.361 9.836 4.38475 10.7233 5.94325 10.838V11.75H6.7255V10.838C8.428 10.7038 9.484 9.7595 9.484 8.363C9.484 7.1705 8.77375 6.4805 7.267 6.092L6.7255 5.95175V3.10025C7.567 3.18275 8.13475 3.63575 8.278 4.31225H9.3805C9.256 3.11225 8.2255 2.25125 6.7255 2.156V1.25H5.94325V2.17475C4.489 2.34725 3.49075 3.27875 3.49075 4.54175C3.49075 5.63225 4.21525 6.404 5.4865 6.7295L5.944 6.851V9.87425C5.08225 9.74675 4.489 9.27425 4.34575 8.58575H3.25ZM5.79325 5.70875C5.011 5.5115 4.59325 5.09 4.59325 4.49675C4.59325 3.78875 5.12125 3.266 5.94325 3.12575V5.747L5.79325 5.70875ZM6.9865 7.11275C7.95175 7.355 8.3755 7.757 8.3755 8.4395C8.3755 9.26225 7.756 9.8105 6.7255 9.89375V7.0475L6.9865 7.11275Z" fill="#581313"/>
</svg>
