<svg width="13" height="13" viewBox="0 0 13 13" fill="none" xmlns="http://www.w3.org/2000/svg">
<path d="M9.75 1.25C10.1478 1.25 10.5294 1.40804 10.8107 1.68934C11.092 1.97064 11.25 2.35218 11.25 2.75V3.5H2.25V2.75C2.25 2.35218 2.40804 1.97064 2.68934 1.68934C2.97064 1.40804 3.35218 1.25 3.75 1.25H9.75Z" fill="#0F5132"/>
<path d="M12 4.25H1.5V8.75C1.5 9.14782 1.65804 9.52936 1.93934 9.81066C2.22064 10.092 2.60218 10.25 3 10.25H10.5C10.8978 10.25 11.2794 10.092 11.5607 9.81066C11.842 9.52936 12 9.14782 12 8.75V4.25Z" fill="#0F5132"/>
</svg>
