<svg width="13" height="13" viewBox="0 0 13 13" fill="none" xmlns="http://www.w3.org/2000/svg">
<g clip-path="url(#clip0_608_3932)">
<path d="M0.25 1.625C0.25 1.52554 0.289509 1.43016 0.359835 1.35983C0.430161 1.28951 0.525544 1.25 0.625 1.25H1.75C1.83365 1.25002 1.91489 1.27801 1.9808 1.32952C2.04671 1.38102 2.09351 1.45309 2.11375 1.53425L2.4175 2.75H11.125C11.1801 2.75005 11.2344 2.76223 11.2843 2.78566C11.3341 2.8091 11.3781 2.84322 11.4133 2.8856C11.4484 2.92798 11.4738 2.97759 11.4877 3.03089C11.5015 3.08419 11.5034 3.13988 11.4933 3.194L10.3683 9.194C10.3522 9.27993 10.3066 9.35754 10.2393 9.41342C10.1721 9.46929 10.0874 9.49992 10 9.5H3.25C3.16257 9.49992 3.07792 9.46929 3.01068 9.41342C2.94344 9.35754 2.89784 9.27993 2.88175 9.194L1.7575 3.20525L1.4575 2H0.625C0.525544 2 0.430161 1.96049 0.359835 1.89017C0.289509 1.81984 0.25 1.72446 0.25 1.625ZM2.5765 3.5L3.56125 8.75H9.68875L10.6735 3.5H2.5765ZM4 9.5C3.60218 9.5 3.22064 9.65804 2.93934 9.93934C2.65804 10.2206 2.5 10.6022 2.5 11C2.5 11.3978 2.65804 11.7794 2.93934 12.0607C3.22064 12.342 3.60218 12.5 4 12.5C4.39783 12.5 4.77936 12.342 5.06066 12.0607C5.34197 11.7794 5.5 11.3978 5.5 11C5.5 10.6022 5.34197 10.2206 5.06066 9.93934C4.77936 9.65804 4.39783 9.5 4 9.5ZM9.25 9.5C8.85218 9.5 8.47064 9.65804 8.18934 9.93934C7.90804 10.2206 7.75 10.6022 7.75 11C7.75 11.3978 7.90804 11.7794 8.18934 12.0607C8.47064 12.342 8.85218 12.5 9.25 12.5C9.64783 12.5 10.0294 12.342 10.3107 12.0607C10.592 11.7794 10.75 11.3978 10.75 11C10.75 10.6022 10.592 10.2206 10.3107 9.93934C10.0294 9.65804 9.64783 9.5 9.25 9.5ZM4 10.25C4.19891 10.25 4.38968 10.329 4.53033 10.4697C4.67098 10.6103 4.75 10.8011 4.75 11C4.75 11.1989 4.67098 11.3897 4.53033 11.5303C4.38968 11.671 4.19891 11.75 4 11.75C3.80109 11.75 3.61032 11.671 3.46967 11.5303C3.32902 11.3897 3.25 11.1989 3.25 11C3.25 10.8011 3.32902 10.6103 3.46967 10.4697C3.61032 10.329 3.80109 10.25 4 10.25ZM9.25 10.25C9.44891 10.25 9.63968 10.329 9.78033 10.4697C9.92098 10.6103 10 10.8011 10 11C10 11.1989 9.92098 11.3897 9.78033 11.5303C9.63968 11.671 9.44891 11.75 9.25 11.75C9.05109 11.75 8.86032 11.671 8.71967 11.5303C8.57902 11.3897 8.5 11.1989 8.5 11C8.5 10.8011 8.57902 10.6103 8.71967 10.4697C8.86032 10.329 9.05109 10.25 9.25 10.25Z" fill="#664D03"/>
</g>
<defs>
<clipPath id="clip0_608_3932">
<rect width="12" height="12" fill="white" transform="translate(0.25 0.5)"/>
</clipPath>
</defs>
</svg>
